<?xml version="1.0" encoding="UTF-8" standalone="no"?>
<!DOCTYPE svg PUBLIC "-//W3C//DTD SVG 1.1//EN" "http://www.w3.org/Graphics/SVG/1.1/DTD/svg11.dtd">
<svg width="100%" height="100%" viewBox="0 0 977 977" version="1.1" xmlns="http://www.w3.org/2000/svg" xmlns:xlink="http://www.w3.org/1999/xlink" xml:space="preserve" xmlns:serif="http://www.serif.com/" style="fill-rule:evenodd;clip-rule:evenodd;stroke-linecap:round;stroke-linejoin:round;stroke-miterlimit:1.5;">
    <g transform="matrix(1,0,0,1,-433.483,-179.326)">
        <circle cx="921.573" cy="667.416" r="488.09" style="fill:white;"/>
    </g>
    <g transform="matrix(0.255512,5.8522,-5.52041,0.241026,1656.23,-742.183)">
        <path d="M150.302,283.513C179.847,214.868 166.546,308.731 189.974,263.303C207.412,229.492 236.86,233.525 250.78,237.798C252.106,238.219 253.542,237.775 254.446,236.665C255.351,235.554 255.556,233.984 254.97,232.655C213.637,138.947 175.017,97.647 150.302,283.513Z" style="fill:url(#_Linear1);stroke:rgb(63,216,213);stroke-opacity:0;stroke-width:0.13px;"/>
    </g>
    <g transform="matrix(3.8659,9.46872e-16,-9.46872e-16,3.8659,-375.965,37.0928)">
        <path d="M269.608,116.918L269.608,116.916C272.943,116.916 276.142,118.239 278.501,120.595C283.411,125.498 283.412,133.461 278.505,138.367C276.187,140.683 273.058,142.002 269.785,142.048C269.728,142.051 269.671,142.052 269.614,142.052C267.843,142.052 266.405,140.645 266.405,138.911C266.405,137.178 267.842,135.772 269.611,135.77L269.611,135.766C271.279,135.765 272.878,135.103 274.058,133.925C276.511,131.472 276.51,127.49 274.056,125.039C272.876,123.861 271.277,123.199 269.609,123.199L269.609,123.198C269.583,123.199 269.558,123.199 269.532,123.199C267.761,123.199 266.324,121.792 266.324,120.058C266.324,118.325 267.761,116.917 269.532,116.917C269.557,116.917 269.583,116.918 269.608,116.918Z" style="fill:white;"/>
    </g>
    <g transform="matrix(-2.67576,-6.10623e-16,-6.38378e-16,2.61935,1283.89,193.782)">
        <circle cx="243.031" cy="144.87" r="4.636" style="fill:white;"/>
    </g>
    <g transform="matrix(3.8659,9.46872e-16,-9.46872e-16,3.8659,-375.592,36.4707)">
        <path d="M231.433,135.726L246.362,135.726L246.362,135.731L252.491,135.731L252.491,135.731C252.538,135.729 252.585,135.728 252.631,135.728C254.402,135.728 255.84,137.135 255.84,138.869C255.84,140.602 254.402,142.01 252.631,142.01C252.585,142.01 252.538,142.009 252.491,142.007L252.491,142.011L237.562,142.011L237.562,142.006L231.433,142.006L231.433,142.006C231.386,142.008 231.34,142.009 231.293,142.009C229.522,142.009 228.084,140.601 228.084,138.868C228.084,137.134 229.522,135.727 231.293,135.727C231.34,135.727 231.386,135.728 231.433,135.73L231.433,135.726Z" style="fill:white;"/>
    </g>
    <g transform="matrix(1.40257,3.3779,-3.57035,1.48248,659.068,-485.934)">
        <path d="M231.433,135.726L246.362,135.726L246.362,135.731L252.491,135.731L252.491,135.731C252.538,135.729 252.585,135.728 252.631,135.728C254.402,135.728 255.84,137.135 255.84,138.869C255.84,140.602 254.402,142.01 252.631,142.01C252.585,142.01 252.538,142.009 252.491,142.007L252.491,142.011L237.562,142.011L237.562,142.006L231.433,142.006L231.433,142.006C231.386,142.008 231.34,142.009 231.293,142.009C229.522,142.009 228.084,140.601 228.084,138.868C228.084,137.134 229.522,135.727 231.293,135.727C231.34,135.727 231.386,135.728 231.433,135.73L231.433,135.726Z" style="fill:white;"/>
    </g>
    <g transform="matrix(3.8659,0,0,3.8659,-117.731,-286.716)">
        <path d="M149.357,166.634C149.414,166.631 149.471,166.63 149.528,166.63C151.299,166.63 152.737,168.037 152.737,169.77C152.737,171.503 151.301,172.91 149.531,172.911L149.531,172.916C147.863,172.916 146.264,173.578 145.085,174.757C142.631,177.21 142.632,181.191 145.087,183.643C146.266,184.821 147.866,185.483 149.534,185.482L149.534,185.483C149.553,185.483 149.573,185.483 149.592,185.483C149.674,185.476 149.757,185.473 149.841,185.473C149.888,185.473 149.934,185.474 149.981,185.476L149.981,185.472L164.91,185.472L164.91,185.496L171.464,185.496L171.464,185.496C171.511,185.494 171.557,185.493 171.604,185.493C173.375,185.493 174.813,186.901 174.813,188.634C174.813,190.368 173.375,191.775 171.604,191.775C171.557,191.775 171.511,191.774 171.464,191.772L171.464,191.776L156.535,191.776L156.535,191.752L149.981,191.752L149.981,191.752C149.94,191.754 149.9,191.755 149.859,191.755C149.777,191.761 149.694,191.764 149.61,191.764C149.585,191.764 149.56,191.764 149.535,191.763L149.535,191.765C146.199,191.766 143,190.443 140.641,188.087C135.732,183.183 135.73,175.22 140.638,170.315C142.955,167.999 146.084,166.679 149.357,166.634ZM166.651,166.671L181.58,166.671L181.58,166.676L187.71,166.676L187.71,166.676C187.756,166.674 187.803,166.673 187.85,166.673C189.62,166.673 191.058,168.08 191.058,169.814C191.058,171.547 189.62,172.955 187.85,172.955C187.803,172.955 187.756,172.954 187.71,172.952L187.71,172.956L172.78,172.956L172.78,172.951L166.651,172.951L166.651,172.951C166.605,172.953 166.558,172.954 166.511,172.954C164.74,172.954 163.302,171.546 163.302,169.813C163.302,168.079 164.74,166.672 166.511,166.672C166.558,166.672 166.605,166.673 166.651,166.675L166.651,166.671ZM157.956,172.898C159.727,172.898 161.165,171.49 161.165,169.757C161.165,168.023 159.727,166.616 157.956,166.616C156.185,166.616 154.748,168.023 154.748,169.757C154.748,171.49 156.185,172.898 157.956,172.898Z" style="fill:white;"/>
    </g>
    <g transform="matrix(2.7336,-2.7336,2.7336,2.7336,-524.513,753.786)">
        <path d="M231.433,135.726L246.362,135.726L246.362,135.731L252.491,135.731L252.491,135.731C252.538,135.729 252.585,135.728 252.631,135.728C254.402,135.728 255.84,137.135 255.84,138.869C255.84,140.602 254.402,142.01 252.631,142.01C252.585,142.01 252.538,142.009 252.491,142.007L252.491,142.011L237.562,142.011L237.562,142.006L231.433,142.006L231.433,142.006C231.386,142.008 231.34,142.009 231.293,142.009C229.522,142.009 228.084,140.601 228.084,138.868C228.084,137.134 229.522,135.727 231.293,135.727C231.34,135.727 231.386,135.728 231.433,135.73L231.433,135.726Z" style="fill:white;"/>
    </g>
    <g transform="matrix(2.7336,-2.7336,2.7336,2.7336,-428.898,753.777)">
        <path d="M231.433,135.726L246.362,135.726L246.362,135.731L252.491,135.731L252.491,135.731C252.538,135.729 252.585,135.728 252.631,135.728C254.402,135.728 255.84,137.135 255.84,138.869C255.84,140.602 254.402,142.01 252.631,142.01C252.585,142.01 252.538,142.009 252.491,142.007L252.491,142.011L237.562,142.011L237.562,142.006L231.433,142.006L231.433,142.006C231.386,142.008 231.34,142.009 231.293,142.009C229.522,142.009 228.084,140.601 228.084,138.868C228.084,137.134 229.522,135.727 231.293,135.727C231.34,135.727 231.386,135.728 231.433,135.73L231.433,135.726Z" style="fill:white;"/>
    </g>
    <g transform="matrix(3.8659,0,0,3.8659,-399.878,-94.4222)">
        <path d="M269.608,116.918L269.608,116.916C272.943,116.916 276.142,118.239 278.501,120.595C283.411,125.498 283.412,133.461 278.505,138.367C276.187,140.683 273.058,142.002 269.785,142.048C269.728,142.051 269.671,142.052 269.614,142.052C267.843,142.052 266.405,140.645 266.405,138.911C266.405,137.178 267.842,135.772 269.611,135.77L269.611,135.766C271.279,135.765 272.878,135.103 274.058,133.925C276.511,131.472 276.51,127.49 274.056,125.039C272.876,123.861 271.277,123.199 269.609,123.199L269.609,123.198C269.583,123.199 269.558,123.199 269.532,123.199C267.761,123.199 266.324,121.792 266.324,120.058C266.324,118.325 267.761,116.917 269.532,116.917C269.557,116.917 269.583,116.918 269.608,116.918Z" style="fill:white;"/>
    </g>
    <g transform="matrix(3.8659,9.46872e-16,-9.46872e-16,3.8659,-310.98,-35.6778)">
        <path d="M231.433,135.726L246.362,135.726L246.362,135.731L252.491,135.731L252.491,135.731C252.538,135.729 252.585,135.728 252.631,135.728C254.402,135.728 255.84,137.135 255.84,138.869C255.84,140.602 254.402,142.01 252.631,142.01C252.585,142.01 252.538,142.009 252.491,142.007L252.491,142.011L237.562,142.011L237.562,142.006L231.433,142.006L231.433,142.006C231.386,142.008 231.34,142.009 231.293,142.009C229.522,142.009 228.084,140.601 228.084,138.868C228.084,137.134 229.522,135.727 231.293,135.727C231.34,135.727 231.386,135.728 231.433,135.73L231.433,135.726Z" style="fill:white;"/>
    </g>
    <defs>
        <linearGradient id="_Linear1" x1="0" y1="0" x2="1" y2="0" gradientUnits="userSpaceOnUse" gradientTransform="matrix(104.014,0,0,79.7063,171.293,135.639)"><stop offset="0" style="stop-color:rgb(0,181,255);stop-opacity:1"/><stop offset="0.16" style="stop-color:rgb(0,130,201);stop-opacity:1"/><stop offset="0.35" style="stop-color:rgb(0,88,156);stop-opacity:1"/><stop offset="1" style="stop-color:rgb(0,73,140);stop-opacity:1"/></linearGradient>
    </defs>
</svg>
