<?xml version="1.0" encoding="UTF-8" standalone="no"?>
<!DOCTYPE svg PUBLIC "-//W3C//DTD SVG 1.1//EN" "http://www.w3.org/Graphics/SVG/1.1/DTD/svg11.dtd">
<svg width="100%" height="100%" viewBox="0 0 16000 16000" version="1.1" xmlns="http://www.w3.org/2000/svg" xmlns:xlink="http://www.w3.org/1999/xlink" xml:space="preserve" xmlns:serif="http://www.serif.com/" style="fill-rule:evenodd;clip-rule:evenodd;stroke-linecap:round;stroke-linejoin:round;stroke-miterlimit:1.5;">
    <circle cx="8000" cy="8000" r="8000" style="fill:white;"/>
    <g transform="matrix(6.3826,0,0,6.29921,-11805.2,-25448.8)">
        <path d="M2421,4675L2923,5092L2396,5945L3785,5945L3283,5528L3810,4675L2421,4675Z" style="fill:url(#_Linear1);"/>
        <path d="M3283,5528L3785,5945L2396,5945L2923,5092L2421,4675L3810,4675L3283,5528ZM2596.78,4738.68L3005.61,5078.29L2509.48,5881.32L3609.22,5881.32L3200.39,5541.71L3696.52,4738.68L2596.78,4738.68Z"/>
    </g>
    <g>
        <g transform="matrix(1,0,0,1,-358,77.7567)">
            <path d="M4803.97,4840.6L4813.7,4842.04L4823.25,4844.43L4832.53,4847.74L4841.43,4851.94L4849.87,4857L4857.78,4862.86L6983,6605.17L6151.49,7933.47L6145.86,7941.55L6139.47,7949.03L6132.38,7955.86L6124.65,7961.96L6116.36,7967.27L6107.59,7971.74L6098.42,7975.33L6088.95,7978L6079.26,7979.74L6069.44,7980.51L6059.6,7980.32L6049.82,7979.17L6040.21,7977.06L6030.85,7974.02L6021.82,7970.08L6013.23,7965.27L6005.16,7959.64L5997.67,7953.25L5990.84,7946.16L5984.75,7938.43L5979.44,7930.14L5974.97,7921.37L5971.38,7912.2L5968.7,7902.73L5966.97,7893.04L5966.19,7883.23L5966.38,7873.38L5967.54,7863.61L5969.64,7853.99L5972.68,7844.63L5976.63,7835.61L5981.43,7827.02L6719.26,6648.38L4730.59,5018.01L4723.29,5011.4L4716.67,5004.11L4710.81,4996.21L4705.74,4987.77L4701.53,4978.87L4698.21,4969.6L4695.81,4960.06L4694.36,4950.32L4693.87,4940.49L4694.35,4930.65L4695.79,4920.92L4698.18,4911.37L4701.49,4902.1L4705.69,4893.19L4710.75,4884.75L4716.61,4876.84L4723.22,4869.54L4730.51,4862.93L4738.41,4857.06L4746.85,4851.99L4755.75,4847.78L4765.02,4844.46L4774.56,4842.06L4784.3,4840.61L4794.13,4840.12L4803.97,4840.6Z"/>
        </g>
        <g transform="matrix(1,0,0,1,-32.0814,-385)">
            <path d="M9553.72,9597.28L9563.46,9598.72L9573.01,9601.11L9582.28,9604.42L9591.18,9608.62L9599.63,9613.68L9607.54,9619.54L11362,11057.9L11369.3,11064.5L11375.9,11071.8L11381.8,11079.7L11386.8,11088.1L11391,11097L11394.4,11106.3L11396.8,11115.8L11398.2,11125.6L11398.7,11135.4L11398.2,11145.2L11396.8,11155L11394.4,11164.5L11391.1,11173.8L11386.9,11182.7L11381.8,11191.1L11376,11199.1L11369.4,11206.4L11362.1,11213L11354.2,11218.8L11345.7,11223.9L11336.8,11228.1L11327.6,11231.4L11318,11233.8L11308.3,11235.3L11298.4,11235.8L11288.6,11235.3L11278.9,11233.9L11269.3,11231.5L11260,11228.2L11251.1,11223.9L11242.7,11218.9L11234.8,11213L9480.34,9774.69L9473.04,9768.08L9466.43,9760.79L9460.56,9752.89L9455.5,9744.45L9451.28,9735.55L9447.96,9726.28L9445.56,9716.74L9444.11,9707L9443.63,9697.17L9444.1,9687.34L9445.54,9677.6L9447.93,9668.05L9451.24,9658.78L9455.45,9649.87L9460.5,9641.43L9466.36,9633.52L9472.97,9626.22L9480.26,9619.61L9488.17,9613.74L9496.61,9608.67L9505.5,9604.46L9514.77,9601.14L9524.32,9598.74L9534.06,9597.29L9543.89,9596.8L9553.72,9597.28Z"/>
        </g>
        <g transform="matrix(1,0,0,1,-453,-535)">
            <path d="M11586.5,5390.06L11596.3,5391.22L11605.9,5393.32L11615.3,5396.36L11624.3,5400.31L11632.9,5405.11L11641,5410.74L11648.5,5417.13L11655.3,5424.23L11661.4,5431.96L11666.7,5440.25L11671.2,5449.02L11674.8,5458.18L11677.4,5467.66L11679.2,5477.35L11679.9,5487.16L11679.8,5497L11678.6,5506.78L11676.5,5516.39L11673.5,5525.76L11669.5,5534.78L11664.7,5543.37L10663.1,7143.36L10657.5,7151.44L10651.1,7158.93L10644,7165.75L10636.3,7171.85L10628,7177.16L10619.2,7181.63L10610,7185.22L10600.6,7187.89L10590.9,7189.63L10581.1,7190.4L10571.2,7190.21L10561.4,7189.06L10551.8,7186.95L10542.5,7183.91L10533.4,7179.97L10524.9,7175.16L10516.8,7169.53L10509.3,7163.14L10502.5,7156.05L10496.4,7148.32L10491.1,7140.03L10486.6,7131.26L10483,7122.09L10480.3,7112.62L10478.6,7102.93L10477.8,7093.11L10478,7083.27L10479.2,7073.5L10481.3,7063.88L10484.3,7054.52L10488.2,7045.5L10493.1,7036.91L11494.6,5436.91L11500.3,5428.84L11506.7,5421.35L11513.8,5414.53L11521.5,5408.43L11529.8,5403.12L11538.5,5398.65L11547.7,5395.06L11557.2,5392.38L11566.9,5390.65L11576.7,5389.87L11586.5,5390.06Z"/>
        </g>
        <g transform="matrix(1,0,0,1,1225,-678.145)">
            <path d="M4212.9,10841.2L3487.5,12000L6093,12000" style="fill:none;stroke:black;stroke-width:200.63px;"/>
        </g>
    </g>
    <defs>
        <linearGradient id="_Linear1" x1="0" y1="0" x2="1" y2="0" gradientUnits="userSpaceOnUse" gradientTransform="matrix(-1206.87,1143.16,-1128.22,-1222.85,3695.7,4743.1)"><stop offset="0" style="stop-color:rgb(0,162,255);stop-opacity:1"/><stop offset="1" style="stop-color:rgb(0,244,255);stop-opacity:1"/></linearGradient>
    </defs>
</svg>
